<svg xmlns="http://www.w3.org/2000/svg" xmlns:xlink="http://www.w3.org/1999/xlink" version="1.1" width="1000" height="1000" viewBox="0 0 1000 1000" xml:space="preserve">
<desc>Created with Fabric.js 3.5.0</desc>
<defs>
</defs>
<rect x="0" y="0" width="100%" height="100%" fill="#ffffff"/>
<g transform="matrix(19.5564 0 0 19.5564 500.0003 500.0003)" id="131483">
<path style="stroke: none; stroke-width: 1; stroke-dasharray: none; stroke-linecap: butt; stroke-dashoffset: 0; stroke-linejoin: miter; stroke-miterlimit: 4; is-custom-font: none; font-file-url: none; fill: rgb(12,17,59); fill-rule: nonzero; opacity: 1;" vector-effect="non-scaling-stroke" transform=" translate(-23.3124, -22.9806)" d="M 22.2044 1.55551 C 22.6143 0.569963 24.0104 0.569964 24.4203 1.55552 L 29.9874 14.9402 C 30.1602 15.3557 30.5509 15.6396 30.9994 15.6756 L 45.4494 16.834 C 46.5134 16.9193 46.9448 18.2471 46.1341 18.9415 L 35.1248 28.3722 C 34.7831 28.6649 34.6338 29.1242 34.7382 29.5619 L 38.1018 43.6626 C 38.3494 44.7009 37.2199 45.5215 36.309 44.9651 L 23.9379 37.4089 C 23.5538 37.1743 23.0709 37.1743 22.6868 37.4089 L 10.3157 44.9651 C 9.40478 45.5215 8.27528 44.7009 8.52295 43.6626 L 11.8865 29.5619 C 11.9909 29.1242 11.8416 28.6649 11.4999 28.3722 L 0.490575 18.9415 C -0.320069 18.2471 0.111362 16.9193 1.17535 16.834 L 15.6253 15.6756 C 16.0738 15.6396 16.4645 15.3557 16.6374 14.9402 L 22.2044 1.55551 Z" stroke-linecap="round"/>
</g>
</svg>